# xmcd
#
# Track frame offsets:
#	150
#	15127
#	29637
#	47135
#	63987
#	76447
#	93625
#	112595
#	125145
#	138475
#	161495
#	181812
#	192805
#	212222
#	226352
#	240912
#
# Disc length: 3315 seconds
#
# Revision: 1
# Processed by: cddbd v1.5.1PL2 Copyright (c) Steve Scherf et al.
# Submitted via: audiograbber 1.83.01
#
DISCID=cd0cf110
DTITLE=Richard Clayderman - Mi querido Amor
DYEAR=1996
DGENRE=Ambiente
TTITLE0=Feelings
TTITLE1=Hello
TTITLE2=Without You
TTITLE3=Superstar
TTITLE4=Perhaps Love
TTITLE5=How deep is your LOve
TTITLE6=Lady in Red
TTITLE7=The way we were
TTITLE8=When a man loves a Woman
TTITLE9=Nights in white Satin
TTITLE10=Whitre Shade of pale
TTITLE11=Yesterday
TTITLE12=Fernando
TTITLE13=Blue eyes
TTITLE14=For all we know
TTITLE15=Love is blue
EXTD=
EXTT0=
EXTT1=
EXTT2=
EXTT3=
EXTT4=
EXTT5=
EXTT6=
EXTT7=
EXTT8=
EXTT9=
EXTT10=
EXTT11=
EXTT12=
EXTT13=
EXTT14=
EXTT15=
PLAYORDER=
